<?xml version="1.0" standalone="no"?><!DOCTYPE svg PUBLIC "-//W3C//DTD SVG 1.1//EN" "http://www.w3.org/Graphics/SVG/1.1/DTD/svg11.dtd"><svg t="1708589073000" class="icon" viewBox="0 0 1024 1024" version="1.1" xmlns="http://www.w3.org/2000/svg" p-id="1317" xmlns:xlink="http://www.w3.org/1999/xlink" width="200" height="200"><path d="M592.7424 656.9472m-179.0976 0a179.0976 179.0976 0 1 0 358.1952 0 179.0976 179.0976 0 1 0-358.1952 0Z" fill="#FFBE0A" p-id="1318"></path><path d="M512 100.5568c-226.8672 0-411.4432 184.576-411.4432 411.4432s184.576 411.4432 411.4432 411.4432 411.4432-184.576 411.4432-411.4432S738.8672 100.5568 512 100.5568z m0 751.2064c-187.3408 0-339.7632-152.4224-339.7632-339.7632S324.6592 172.2368 512 172.2368s339.7632 152.4224 339.7632 339.7632-152.4224 339.7632-339.7632 339.7632z" fill="#34332E" p-id="1319"></path><path d="M684.1344 471.04h-134.4512V336.5888c0-19.8144-16.0256-35.84-35.84-35.84s-35.84 16.0256-35.84 35.84V471.04H343.6032c-19.8144 0-35.84 16.0256-35.84 35.84s16.0256 35.84 35.84 35.84h134.4512v134.4512c0 19.8144 16.0256 35.84 35.84 35.84s35.84-16.0256 35.84-35.84V542.72h134.4512c19.8144 0 35.84-16.0256 35.84-35.84s-16.0768-35.84-35.8912-35.84z" fill="#34332E" p-id="1320"></path></svg>