<?xml version="1.0" standalone="no"?><!DOCTYPE svg PUBLIC "-//W3C//DTD SVG 1.1//EN" "http://www.w3.org/Graphics/SVG/1.1/DTD/svg11.dtd"><svg t="1714102923897" class="icon" viewBox="0 0 1024 1024" version="1.1" xmlns="http://www.w3.org/2000/svg" p-id="1695" xmlns:xlink="http://www.w3.org/1999/xlink" width="200" height="200"><path d="M437.6 823.3c3.8 1 7.7 1.6 11.8 1.6 24.4 0 44.2-19.8 44.2-44.2 0-3.5-0.5-7-1.3-10.3-3.1 10.1-9.7 21.2-19.7 31.1-11 11.1-23.6 18.8-35 21.8zM728.5 823.2c3.9 1.1 8.1 1.8 12.3 1.8 24.4 0 44.2-19.8 44.2-44.2 0-4.3-0.6-8.4-1.8-12.3-2.8 10.7-9.7 22.5-20.3 33.1-10.8 10.9-23.2 18.4-34.4 21.6z" fill="#ffbe0a" p-id="1696"></path><path d="M740.9 685.5c-52.5 0-95.2 42.7-95.2 95.2s42.7 95.2 95.2 95.2 95.2-42.7 95.2-95.2-42.7-95.2-95.2-95.2z m0 51.1c20.1 0 37.1 13.5 42.4 31.9 1.1 3.9 1.8 8 1.8 12.3 0 24.4-19.8 44.2-44.2 44.2-4.3 0-8.4-0.6-12.3-1.8-18.4-5.4-31.8-22.3-31.8-42.4-0.1-24.4 19.7-44.2 44.1-44.2zM449.4 685.5c-52.5 0-95.2 42.7-95.2 95.2s42.7 95.2 95.2 95.2 95.2-42.7 95.2-95.2c0.1-52.5-42.7-95.2-95.2-95.2z m0 51.1c20.8 0 38.3 14.5 42.9 33.9 0.8 3.3 1.3 6.7 1.3 10.3 0 24.4-19.8 44.2-44.2 44.2-4.1 0-8-0.6-11.8-1.6-18.7-5.2-32.4-22.3-32.4-42.6 0-24.4 19.9-44.2 44.2-44.2z" fill="#333333" p-id="1697"></path><path d="M837.1 574.5l72.2-279.8-0.5-26.2-0.1 25.5-110.3-0.4c-13.9 44.6-41.3 133.1-57.5 189.3-11.2 38.7-20.9 90.9-43.8 113.6h111.7c13.4 0 25-9 28.3-22z" fill="#ffbe0a" p-id="1698"></path><path d="M547.4 292.8H559.2c14.1 0 25.5-11.4 25.5-25.4 0-14.1-11.3-25.6-25.4-25.6h-11.7-0.1c-14.1 0-25.5 11.4-25.5 25.4-0.1 14.1 11.3 25.6 25.4 25.6z" fill="#333333" p-id="1699"></path><path d="M949.5 263c-9.8-12.6-24.6-19.9-40.6-20.1l-260.2-0.9h-0.1c-14.1 0-25.5 11.4-25.5 25.4 0 14.1 11.3 25.6 25.4 25.6l150 0.5 110.3 0.4 0.1-25.5 0.5 26.2-72.2 279.8c-3.3 13-14.9 22-28.3 22H393.3c-13.2 0-24.6-8.7-28.1-21.3L320 292.7l138.1-0.3c14.1 0 25.5-11.5 25.5-25.6 0-14.1-11.4-25.5-25.5-25.5l-146.2 0.3-6.5-40.4c-0.1-0.7-0.3-1.4-0.4-2.1-6.1-24.6-28-41.8-53.3-41.8h-162c-14.1 0-25.5 11.4-25.5 25.5s11.4 25.5 25.5 25.5h162c1.6 0 3 1 3.6 2.4L315 584.4c0.1 0.7 0.2 1.4 0.4 2 8.8 36 40.9 61.1 77.9 61.1h415.5c36.8 0 68.8-24.9 77.7-60.5l72.2-279.8c4-15.4 0.6-31.5-9.2-44.2z" fill="#333333" p-id="1700"></path></svg>