<?xml version="1.0" standalone="no"?><!DOCTYPE svg PUBLIC "-//W3C//DTD SVG 1.1//EN" "http://www.w3.org/Graphics/SVG/1.1/DTD/svg11.dtd"><svg class="icon" width="200px" height="200.00px" viewBox="0 0 1024 1024" version="1.1" xmlns="http://www.w3.org/2000/svg"><path d="M773.164265 1024H250.835735c-138.697406 0-250.835735-112.138329-250.835735-250.835735V250.835735C0 112.138329 112.138329 0 250.835735 0h522.32853c138.697406 0 250.835735 112.138329 250.835735 250.835735v522.32853c0 135.746398-115.089337 250.835735-250.835735 250.835735z" fill="#FEF3E5" /><path d="M510.524496 481.014409c76.726225 0 135.746398-61.971182 135.746397-135.746397S587.25072 206.570605 510.524496 206.570605s-135.746398 61.971182-135.746398 135.746398 61.971182 138.697406 135.746398 138.697406z m73.775216 29.510087h-144.599424c-56.069164 0-112.138329 23.608069-153.452449 64.92219-41.314121 41.314121-64.92219 94.432277-64.922191 153.452449 0 8.853026 2.951009 17.706052 11.804035 26.559078 5.902017 5.902017 14.755043 11.804035 26.559078 11.804035h504.622478c8.853026 0 17.706052-2.951009 26.559078-11.804035 5.902017-5.902017 11.804035-14.755043 11.804035-26.559078-2.951009-120.991354-100.334294-218.37464-218.37464-218.374639z m0 0" fill="#E99322" /></svg>