<?xml version="1.0" standalone="no"?><!DOCTYPE svg PUBLIC "-//W3C//DTD SVG 1.1//EN" "http://www.w3.org/Graphics/SVG/1.1/DTD/svg11.dtd"><svg class="icon" width="200px" height="200.00px" viewBox="0 0 1024 1024" version="1.1" xmlns="http://www.w3.org/2000/svg"><path fill="#eeb174" d="M615.68 480c-15.36-3.84-28.16-15.36-34.56-29.44l-67.84-140.8-72.96 142.08c-7.68 14.08-20.48 24.32-34.56 28.16s-30.72 1.28-44.8-7.68l-71.68-47.36L371.2 679.68c7.68 23.04 29.44 39.68 55.04 38.4l174.08-3.84c23.04 0 44.8-15.36 52.48-38.4l83.2-249.6-75.52 47.36c-14.08 8.96-29.44 11.52-44.8 6.4zM588.8 574.72L523.52 640c-2.56 2.56-6.4 3.84-10.24 3.84s-7.68-1.28-10.24-3.84l-65.28-65.28c-5.12-5.12-5.12-15.36 0-20.48s15.36-5.12 20.48 0l55.04 55.04 55.04-55.04c5.12-5.12 15.36-5.12 20.48 0 6.4 5.12 6.4 14.08 0 20.48z"  /><path fill="#eeb174" d="M512 0C170.24 0 0 170.24 0 512s170.24 512 512 512 512-170.24 512-512S853.76 0 512 0z m253.44 424.96L678.4 686.08c-11.52 34.56-43.52 57.6-79.36 57.6l-174.08 3.84h-1.28c-17.92 0-34.56-5.12-49.92-15.36-15.36-10.24-25.6-25.6-32-43.52l-84.48-264.96c-3.84-10.24 0-20.48 8.96-26.88s20.48-6.4 28.16-1.28l81.92 53.76c6.4 3.84 14.08 5.12 20.48 3.84 7.68-1.28 12.8-6.4 16.64-12.8l76.8-149.76c3.84-8.96 12.8-14.08 21.76-14.08s17.92 5.12 21.76 14.08l71.68 148.48c3.84 6.4 8.96 11.52 16.64 14.08 7.68 2.56 14.08 1.28 20.48-2.56l84.48-53.76c8.96-6.4 20.48-5.12 28.16 1.28 10.24 5.12 14.08 16.64 10.24 26.88z"  /></svg>