<?xml version="1.0" standalone="no"?><!DOCTYPE svg PUBLIC "-//W3C//DTD SVG 1.1//EN" "http://www.w3.org/Graphics/SVG/1.1/DTD/svg11.dtd"><svg class="icon" width="200px" height="200.00px" viewBox="0 0 1024 1024" version="1.1" xmlns="http://www.w3.org/2000/svg"><path d="M787.7632 824.7808h-223.5904c-56.6272 0-100.0448-50.2272-91.904-106.2912l25.856-177.2544c6.656-45.6192 45.7728-79.4624 91.904-79.4624h173.4656c46.4384 0 85.7088 34.304 92.0064 80.2816l24.2176 177.2544c7.68 55.808-35.6864 105.472-91.9552 105.472z" fill="#FFBE0A" /><path d="M788.1216 876.8H238.2848c-41.6768 0-81.2032-18.0736-108.4416-49.6128a143.488 143.488 0 0 1-33.4336-114.4832l65.2288-446.72c10.1888-69.9392 71.2192-122.6752 141.8752-122.6752h423.6288c71.3216 0 132.4032 53.2992 142.0288 123.9552l61.0304 446.7712c5.632 41.0112-6.8096 82.4832-34.048 113.664s-66.6112 49.1008-108.032 49.1008zM303.4624 214.9888c-35.328 0-65.8432 26.368-70.912 61.3376l-65.2288 446.72c-3.0208 20.6336 3.072 41.472 16.6912 57.2416s33.3824 24.7808 54.2208 24.7808h549.888a71.70048 71.70048 0 0 0 71.0144-81.408L798.1056 276.992c-4.8128-35.328-35.3792-61.952-71.0144-61.952H303.4624z" fill="#34332E" /><path d="M513.1776 623.9744c-99.6352 0-180.736-81.0496-180.736-180.736v-7.2192c0-19.8144 16.0256-35.84 35.84-35.84s35.84 16.0256 35.84 35.84v7.2192c0 60.16 48.896 109.056 109.056 109.056s109.056-48.896 109.056-109.056v-7.2192c0-19.8144 16.0256-35.84 35.84-35.84s35.84 16.0256 35.84 35.84v7.2192c0 99.6864-81.0496 180.736-180.736 180.736z" fill="#34332E" /></svg>