<?xml version="1.0" standalone="no"?><!DOCTYPE svg PUBLIC "-//W3C//DTD SVG 1.1//EN" "http://www.w3.org/Graphics/SVG/1.1/DTD/svg11.dtd"><svg t="1707117667330" class="icon" viewBox="0 0 1024 1024" version="1.1" xmlns="http://www.w3.org/2000/svg" p-id="3243" xmlns:xlink="http://www.w3.org/1999/xlink" width="200" height="200"><path d="M874.284 992H149.716a32 32 0 0 1-32-32V204h788.572v756a32.004 32.004 0 0 1-32.004 32z" fill="#F9CFCF" p-id="3244"></path><path d="M874.284 1000H149.716c-22.056 0-40-17.944-40-40V204a8 8 0 0 1 8-8h788.572a8 8 0 0 1 8 8v756c-0.004 22.056-17.948 40-40.004 40zM125.716 212v748c0 13.236 10.764 24 24 24h724.572c13.236 0 24-10.764 24-24V212H125.716z" fill="#3762CC" p-id="3245"></path><path d="M920.376 300H103.624a16.576 16.576 0 0 1-16.576-16.576V220.576A16.576 16.576 0 0 1 103.624 204h816.756a16.576 16.576 0 0 1 16.576 16.576v62.852A16.58 16.58 0 0 1 920.376 300z" fill="#4671C6" p-id="3246"></path><path d="M920.376 308H103.624a24.6 24.6 0 0 1-24.576-24.576V220.576A24.6 24.6 0 0 1 103.624 196h816.752a24.6 24.6 0 0 1 24.576 24.576v62.852A24.6 24.6 0 0 1 920.376 308zM103.624 212a8.584 8.584 0 0 0-8.576 8.576v62.852c0 4.728 3.848 8.576 8.576 8.576h816.752a8.584 8.584 0 0 0 8.576-8.576V220.576A8.588 8.588 0 0 0 920.376 212H103.624z" fill="#3762CC" p-id="3247"></path><path d="M512 212m-180 0a180 180 0 1 0 360 0 180 180 0 1 0-360 0Z" fill="#F9A7A7" p-id="3248"></path><path d="M512 212m-140 0a140 140 0 1 0 280 0 140 140 0 1 0-280 0Z" fill="#FFEA92" p-id="3249"></path><path d="M512 400c-103.664 0-188-84.336-188-188s84.336-188 188-188 188 84.336 188 188-84.336 188-188 188z m0-360c-94.84 0-172 77.16-172 172s77.16 172 172 172 172-77.16 172-172-77.16-172-172-172z" fill="#3762CC" p-id="3250"></path><path d="M972 552H52l65.716-160h788.568z" fill="#A4C9FF" p-id="3251"></path><path d="M100.044 652h-4.092C71.68 652 52 632.32 52 608.044V552h92v56.044C144 632.32 124.32 652 100.044 652z" fill="#F9A7A7" p-id="3252"></path><path d="M192.044 652h-4.092C163.68 652 144 632.32 144 608.044V552h92v56.044C236 632.32 216.32 652 192.044 652z" fill="#E0EBFC" p-id="3253"></path><path d="M284.044 652h-4.092C255.68 652 236 632.32 236 608.044V552h92v56.044C328 632.32 308.32 652 284.044 652z" fill="#F9A7A7" p-id="3254"></path><path d="M376.044 652h-4.092C347.68 652 328 632.32 328 608.044V552h92v56.044C420 632.32 400.32 652 376.044 652z" fill="#E0EBFC" p-id="3255"></path><path d="M468.044 652h-4.092C439.68 652 420 632.32 420 608.044V552h92v56.044c0 24.276-19.68 43.956-43.956 43.956z" fill="#F9A7A7" p-id="3256"></path><path d="M560.044 652h-4.092C531.68 652 512 632.32 512 608.044V552h92v56.044c0 24.276-19.68 43.956-43.956 43.956z" fill="#E0EBFC" p-id="3257"></path><path d="M652.044 652h-4.092C623.68 652 604 632.32 604 608.044V552h92v56.044c0 24.276-19.68 43.956-43.956 43.956z" fill="#F9A7A7" p-id="3258"></path><path d="M744.044 652h-4.092C715.68 652 696 632.32 696 608.044V552h92v56.044c0 24.276-19.68 43.956-43.956 43.956z" fill="#E0EBFC" p-id="3259"></path><path d="M836.044 652h-4.092C807.68 652 788 632.32 788 608.044V552h92v56.044c0 24.276-19.68 43.956-43.956 43.956z" fill="#F9A7A7" p-id="3260"></path><path d="M928.044 652h-4.092C899.68 652 880 632.32 880 608.044V552h92v56.044c0 24.276-19.68 43.956-43.956 43.956z" fill="#E0EBFC" p-id="3261"></path><path d="M972 560H52a8.004 8.004 0 0 1-7.4-11.04l65.716-160a8 8 0 0 1 7.4-4.96h788.572a8 8 0 0 1 7.4 4.96l65.716 160A8 8 0 0 1 972 560z m-908.068-16h896.132l-59.144-144H123.08l-59.148 144z" fill="#3762CC" p-id="3262"></path><path d="M100.044 660h-4.088C67.308 660 44 636.692 44 608.044V552a8 8 0 0 1 8-8h92a8 8 0 0 1 8 8v56.044C152 636.692 128.692 660 100.044 660zM60 560v48.044c0 19.828 16.128 35.956 35.956 35.956h4.088c19.828 0 35.956-16.128 35.956-35.956V560H60z" fill="#3762CC" p-id="3263"></path><path d="M192.044 660h-4.088C159.308 660 136 636.692 136 608.044V552a8 8 0 0 1 8-8h92a8 8 0 0 1 8 8v56.044C244 636.692 220.692 660 192.044 660zM152 560v48.044c0 19.828 16.128 35.956 35.956 35.956h4.088c19.828 0 35.956-16.128 35.956-35.956V560H152z" fill="#3762CC" p-id="3264"></path><path d="M284.044 660h-4.088C251.308 660 228 636.692 228 608.044V552a8 8 0 0 1 8-8h92a8 8 0 0 1 8 8v56.044C336 636.692 312.692 660 284.044 660zM244 560v48.044c0 19.828 16.128 35.956 35.956 35.956h4.088c19.828 0 35.956-16.128 35.956-35.956V560H244z" fill="#3762CC" p-id="3265"></path><path d="M376.044 660h-4.088C343.308 660 320 636.692 320 608.044V552a8 8 0 0 1 8-8h92a8 8 0 0 1 8 8v56.044c0 28.648-23.308 51.956-51.956 51.956zM336 560v48.044c0 19.828 16.128 35.956 35.956 35.956h4.088c19.828 0 35.956-16.128 35.956-35.956V560H336z" fill="#3762CC" p-id="3266"></path><path d="M468.044 660h-4.088c-28.648 0-51.956-23.308-51.956-51.956V552a8 8 0 0 1 8-8h92a8 8 0 0 1 8 8v56.044c0 28.648-23.308 51.956-51.956 51.956zM428 560v48.044c0 19.828 16.128 35.956 35.956 35.956h4.088c19.828 0 35.956-16.128 35.956-35.956V560h-76z" fill="#3762CC" p-id="3267"></path><path d="M560.044 660h-4.088c-28.648 0-51.956-23.308-51.956-51.956V552a8 8 0 0 1 8-8h92a8 8 0 0 1 8 8v56.044c0 28.648-23.308 51.956-51.956 51.956zM520 560v48.044c0 19.828 16.128 35.956 35.956 35.956h4.088c19.828 0 35.956-16.128 35.956-35.956V560h-76z" fill="#3762CC" p-id="3268"></path><path d="M652.044 660h-4.088c-28.648 0-51.956-23.308-51.956-51.956V552a8 8 0 0 1 8-8h92a8 8 0 0 1 8 8v56.044c0 28.648-23.308 51.956-51.956 51.956zM612 560v48.044c0 19.828 16.128 35.956 35.956 35.956h4.088c19.828 0 35.956-16.128 35.956-35.956V560h-76z" fill="#3762CC" p-id="3269"></path><path d="M744.044 660h-4.088c-28.648 0-51.956-23.308-51.956-51.956V552a8 8 0 0 1 8-8h92a8 8 0 0 1 8 8v56.044c0 28.648-23.308 51.956-51.956 51.956zM704 560v48.044c0 19.828 16.128 35.956 35.956 35.956h4.088c19.828 0 35.956-16.128 35.956-35.956V560h-76z" fill="#3762CC" p-id="3270"></path><path d="M836.044 660h-4.088c-28.648 0-51.956-23.308-51.956-51.956V552a8 8 0 0 1 8-8h92a8 8 0 0 1 8 8v56.044c0 28.648-23.308 51.956-51.956 51.956zM796 560v48.044c0 19.828 16.128 35.956 35.956 35.956h4.088c19.828 0 35.956-16.128 35.956-35.956V560h-76z" fill="#3762CC" p-id="3271"></path><path d="M928.044 660h-4.088c-28.648 0-51.956-23.308-51.956-51.956V552a8 8 0 0 1 8-8h92a8 8 0 0 1 8 8v56.044c0 28.648-23.308 51.956-51.956 51.956zM888 560v48.044c0 19.828 16.128 35.956 35.956 35.956h4.088c19.828 0 35.956-16.128 35.956-35.956V560h-76z" fill="#3762CC" p-id="3272"></path><path d="M426.88 210.256h-0.312a26.56 26.56 0 0 1-26.564-26.564v-14.78a26.56 26.56 0 0 1 26.564-26.564h0.312a26.56 26.56 0 0 1 26.564 26.564v14.78a26.564 26.564 0 0 1-26.564 26.564zM597.12 210.256h0.312a26.56 26.56 0 0 0 26.564-26.564v-14.78a26.56 26.56 0 0 0-26.564-26.564h-0.312a26.56 26.56 0 0 0-26.564 26.564v14.78a26.564 26.564 0 0 0 26.564 26.564zM478.02 161.644h-0.312a26.56 26.56 0 0 1-26.564-26.564v-14.78a26.56 26.56 0 0 1 26.564-26.564h0.312a26.56 26.56 0 0 1 26.564 26.564v14.78a26.56 26.56 0 0 1-26.564 26.564zM544.536 161.644h0.312a26.56 26.56 0 0 0 26.564-26.564v-14.78a26.56 26.56 0 0 0-26.564-26.564h-0.312a26.56 26.56 0 0 0-26.564 26.564v14.78a26.564 26.564 0 0 0 26.564 26.564zM564.5 213.656c-2.368-0.584-4.008-2.568-4.008-4.828 0-24.74-21.708-44.796-48.492-44.796-26.78 0-48.492 20.056-48.492 44.796 0 2.264-1.644 4.244-4.008 4.828-20.444 5.044-35.5 22.26-35.5 42.736v1.096c0 24.436 21.444 44.248 47.896 44.248h80.208c26.452 0 47.896-19.812 47.896-44.248v-1.096c0-20.476-15.056-37.692-35.5-42.736z" fill="#4671C6" p-id="3273"></path><path d="M810.144 696h-138.284c-10.416 0-18.856 10.196-18.856 22.768v250.46c0 12.576 8.444 22.768 18.856 22.768h138.284c10.416 0 18.856-10.196 18.856-22.768v-250.46c0-12.572-8.444-22.768-18.856-22.768z" fill="#E0EBFC" p-id="3274"></path><path d="M810.144 1000h-138.284c-14.808 0-26.856-13.804-26.856-30.768v-250.46c0-16.968 12.048-30.768 26.856-30.768h138.284c14.808 0 26.856 13.804 26.856 30.768v250.46c0 16.964-12.048 30.768-26.856 30.768z m-138.288-296c-5.884 0-10.856 6.764-10.856 14.768v250.46c0 8.004 4.972 14.768 10.856 14.768h138.284c5.884 0 10.856-6.764 10.856-14.768v-250.46c0-8.004-4.972-14.768-10.856-14.768h-138.284z" fill="#3762CC" p-id="3275"></path><path d="M829 852h-176a8 8 0 0 1 0-16h176a8 8 0 0 1 0 16z" fill="#3762CC" p-id="3276"></path><path d="M574.16 880H215.84a20.84 20.84 0 0 1-20.84-20.84v-142.32a20.84 20.84 0 0 1 20.84-20.84h358.316a20.84 20.84 0 0 1 20.84 20.84v142.316A20.84 20.84 0 0 1 574.16 880z" fill="#E0EBFC" p-id="3277"></path><path d="M574.16 888H215.84a28.872 28.872 0 0 1-28.84-28.84v-142.32a28.872 28.872 0 0 1 28.84-28.84h358.316a28.872 28.872 0 0 1 28.84 28.84v142.316A28.864 28.864 0 0 1 574.16 888z m-358.32-184c-7.08 0-12.84 5.76-12.84 12.84v142.316c0 7.08 5.76 12.84 12.84 12.84h358.316c7.08 0 12.84-5.76 12.84-12.84V716.84c0-7.08-5.76-12.84-12.84-12.84H215.84z" fill="#3762CC" p-id="3278"></path></svg>