<?xml version="1.0" standalone="no"?><!DOCTYPE svg PUBLIC "-//W3C//DTD SVG 1.1//EN" "http://www.w3.org/Graphics/SVG/1.1/DTD/svg11.dtd"><svg class="icon" width="200px" height="200.00px" viewBox="0 0 1024 1024" version="1.1" xmlns="http://www.w3.org/2000/svg"><path d="M571.8016 525.568m-179.0976 0a179.0976 179.0976 0 1 0 358.1952 0 179.0976 179.0976 0 1 0-358.1952 0Z" fill="#FFBE0A" /><path d="M511.9488 786.688c-189.184 0-343.04-153.9072-343.04-343.04s153.9072-343.04 343.04-343.04 343.04 153.9072 343.04 343.04-153.856 343.04-343.04 343.04z m0-614.4c-149.6576 0-271.36 121.7536-271.36 271.36s121.7536 271.36 271.36 271.36 271.36-121.7536 271.36-271.36-121.7024-271.36-271.36-271.36zM788.0192 918.272H235.8784c-19.8144 0-35.84-16.0256-35.84-35.84s16.0256-35.84 35.84-35.84h552.192c19.8144 0 35.84 16.0256 35.84 35.84s-16.0768 35.84-35.8912 35.84z" fill="#34332E" /></svg>