<?xml version="1.0" standalone="no"?><!DOCTYPE svg PUBLIC "-//W3C//DTD SVG 1.1//EN" "http://www.w3.org/Graphics/SVG/1.1/DTD/svg11.dtd"><svg class="icon" width="200px" height="200.00px" viewBox="0 0 1024 1024" version="1.1" xmlns="http://www.w3.org/2000/svg"><path d="M574.8224 868.9152h110.08c103.168 0 186.7776-83.6096 186.7776-186.7776V540.672c0-44.1344-35.7888-79.9232-79.9232-79.9232h-110.08c-103.168 0-186.7776 83.6096-186.7776 186.7776v141.4656c0 44.1344 35.7888 79.9232 79.9232 79.9232z" fill="#FFBE0A" /><path d="M719.5648 109.0048H305.8176c-108.1344 0-196.1472 88.0128-196.1472 196.1472v413.7472c0 108.1344 88.0128 196.1472 196.1472 196.1472h413.7472c108.1344 0 196.1472-87.9616 196.1472-196.1472V305.1008c0-108.1344-88.0128-196.096-196.1472-196.096z m0 734.3104H305.8176c-68.608 0-124.4672-55.808-124.4672-124.4672V305.1008c0-68.608 55.808-124.4672 124.4672-124.4672h413.7472c68.608 0 124.4672 55.808 124.4672 124.4672v32.3072h-192.6144c-96.256 0-174.592 78.2848-174.592 174.592s78.2848 174.592 174.592 174.592h192.6144v32.3072c0 68.608-55.8592 124.416-124.4672 124.416z m124.4672-228.4544h-192.6144c-56.7296 0-102.912-46.1312-102.912-102.912s46.1312-102.912 102.912-102.912h192.6144v205.824z" fill="#34332E" /><path d="M649.863615 562.990322a51.2 51.2 0 1 0 10.086756-101.901999 51.2 51.2 0 1 0-10.086756 101.901999Z" fill="#34332E" /></svg>