<?xml version="1.0" standalone="no"?><!DOCTYPE svg PUBLIC "-//W3C//DTD SVG 1.1//EN" "http://www.w3.org/Graphics/SVG/1.1/DTD/svg11.dtd"><svg class="icon" width="200px" height="200.00px" viewBox="0 0 1024 1024" version="1.1" xmlns="http://www.w3.org/2000/svg"><path d="M0 0m436.906667 0l150.186666 0q436.906667 0 436.906667 436.906667l0 150.186666q0 436.906667-436.906667 436.906667l-150.186666 0q-436.906667 0-436.906667-436.906667l0-150.186666q0-436.906667 436.906667-436.906667Z" fill="#FFE2DB" /><path d="M627.87584 636.791467h83.995307c11.537067 0 20.8896 9.434453 20.8896 21.080746v42.68032c0 11.646293-9.352533 21.0944-20.8896 21.0944h-83.995307v25.258667c0 17.65376-20.179627 27.511467-33.87392 16.575147l-85.538133-68.4032a21.230933 21.230933 0 0 1 0.12288-33.21856l85.52448-67.447467c13.707947-10.81344 33.764693-0.955733 33.764693 16.62976v25.736533z" fill="#D45B3D" /><path d="M516.99712 259.64544L273.066667 457.427627v295.185066h252.1088l-37.942614-30.378666a55.678293 55.678293 0 0 1-20.944213-43.90912 55.62368 55.62368 0 0 1 21.244587-43.74528l85.52448-67.447467a53.98528 53.98528 0 0 1 33.87392-11.823787c27.470507 0 50.29888 20.31616 54.531413 46.830934h85.756587c4.778667 0 9.29792 0.8192 13.707946 1.952426V457.427627L516.99712 259.64544zM416.290133 709.290667H320.826027v-96.529067h95.532373v96.529067h-0.068267z m0-142.45888H320.826027v-96.515414h95.532373v96.529067h-0.068267z" fill="#D45B3D" /></svg>