<?xml version="1.0" standalone="no"?><!DOCTYPE svg PUBLIC "-//W3C//DTD SVG 1.1//EN" "http://www.w3.org/Graphics/SVG/1.1/DTD/svg11.dtd"><svg class="icon" width="200px" height="200.00px" viewBox="0 0 1024 1024" version="1.1" xmlns="http://www.w3.org/2000/svg"><path d="M588.9536 650.752m-179.0976 0a179.0976 179.0976 0 1 0 358.1952 0 179.0976 179.0976 0 1 0-358.1952 0Z" fill="#FFBE0A" /><path d="M508.2112 917.248c-226.8672 0-411.4432-184.576-411.4432-411.4432s184.576-411.4432 411.4432-411.4432 411.4432 184.576 411.4432 411.4432-184.576 411.4432-411.4432 411.4432z m0-751.2064c-187.3408 0-339.7632 152.4224-339.7632 339.7632s152.4224 339.7632 339.7632 339.7632 339.7632-152.4224 339.7632-339.7632-152.3712-339.7632-339.7632-339.7632z" fill="#34332E" /><path d="M661.1456 458.7008H342.3744c-19.8144 0-35.84-16.0256-35.84-35.84s16.0256-35.84 35.84-35.84h238.4384l-36.1984-40.3456a35.80416 35.80416 0 0 1 2.7648-50.5856 35.80416 35.80416 0 0 1 50.5856 2.7648l89.8048 100.096c9.4208 10.5472 11.8272 25.6 6.0416 38.5536s-18.5344 21.1968-32.6656 21.1968zM432.2304 693.2992c-9.8304 0-19.6096-3.9936-26.6752-11.9296l-89.8048-100.096c-9.4208-10.5472-11.8272-25.6-6.0416-38.5536s18.5856-21.248 32.7168-21.248h318.72c19.8144 0 35.84 16.0256 35.84 35.84s-16.0256 35.84-35.84 35.84H422.7072l36.1984 40.3456a35.80416 35.80416 0 0 1-2.7648 50.5856 35.54304 35.54304 0 0 1-23.9104 9.216z" fill="#34332E" /></svg>