<?xml version="1.0" standalone="no"?><!DOCTYPE svg PUBLIC "-//W3C//DTD SVG 1.1//EN" "http://www.w3.org/Graphics/SVG/1.1/DTD/svg11.dtd"><svg class="icon" width="200px" height="200.00px" viewBox="0 0 1024 1024" version="1.1" xmlns="http://www.w3.org/2000/svg"><path d="M664.1664 445.7984l127.5904 75.3152a57.7536 57.7536 0 0 1 28.416 50.3808l-1.4336 148.1728a57.9072 57.9072 0 0 1-29.3888 49.8176l-129.024 72.8064a57.94816 57.94816 0 0 1-57.856-0.5632l-127.5904-75.3152a57.7536 57.7536 0 0 1-28.416-50.3808l1.4336-148.1728a57.9072 57.9072 0 0 1 29.3888-49.8176l129.024-72.8064c18.0224-10.1888 40.0384-9.9328 57.856 0.5632z" fill="#FFBE0A" /><path d="M817.408 232.2432l-203.8272-120.3712c-58.2144-34.4064-131.0208-35.1232-189.9008-1.8944L217.5488 226.3552c-58.88 33.2288-95.8976 95.8976-96.5632 163.5328l-2.304 236.6976c-0.6656 67.6352 35.1232 131.0208 93.3376 165.376l203.8272 120.3712c29.696 17.5104 63.1296 26.3168 96.5632 26.3168 32.2048 0 64.4096-8.1408 93.3376-24.4224l206.1312-116.3264c58.88-33.2288 95.8976-95.8976 96.5632-163.5328l2.304-236.6976c0.6656-67.6352-35.1232-131.0208-93.3376-165.4272z m19.3536 401.408c-0.4096 42.0864-23.4496 81.1008-60.1088 101.7856l-206.1312 116.3264c-36.6592 20.6848-81.9712 20.2752-118.2208-1.1776l-203.8272-120.3712c-36.2496-21.4016-58.5216-60.8768-58.112-102.9632l2.304-236.6976c0.4096-42.0864 23.4496-81.1008 60.1088-101.7856l206.1312-116.3264c17.9712-10.1376 38.0416-15.2064 58.112-15.2064 20.8384 0 41.6768 5.4784 60.1088 16.384l203.8272 120.3712c36.2496 21.4016 58.5216 60.8768 58.112 102.9632l-2.304 236.6976z" fill="#34332E" /><path d="M673.2288 368.2816l-158.5664 93.3888-164.352-93.6448c-17.2032-9.7792-39.0656-3.7888-48.896 13.4144s-3.7888 39.0656 13.4144 48.896L476.16 522.24v180.8384c0 19.8144 16.0256 35.84 35.84 35.84s35.84-16.0256 35.84-35.84V525.312l161.7408-95.2832a35.82976 35.82976 0 0 0 12.6976-49.0496c-10.0352-17.1008-32-22.7328-49.0496-12.6976z" fill="#34332E" /></svg>