<?xml version="1.0" standalone="no"?><!DOCTYPE svg PUBLIC "-//W3C//DTD SVG 1.1//EN" "http://www.w3.org/Graphics/SVG/1.1/DTD/svg11.dtd"><svg class="icon" width="200px" height="200.00px" viewBox="0 0 1024 1024" version="1.1" xmlns="http://www.w3.org/2000/svg"><path d="M662.272 605.0816m-179.0976 0a179.0976 179.0976 0 1 0 358.1952 0 179.0976 179.0976 0 1 0-358.1952 0Z" fill="#FFBE0A" /><path d="M553.4208 122.2144c-213.8624 0-387.84 173.9776-387.84 387.84 0 11.1104 0.512 22.1696 1.4848 33.1776l-44.288-31.6416c-16.0768-11.52-38.5024-7.7824-50.0224 8.2944s-7.7824 38.5024 8.2944 50.0224l120.576 86.2208c6.144 4.4032 13.4144 6.7072 20.8384 6.7072a35.75296 35.75296 0 0 0 29.4912-15.4624l78.4384-113.5104c11.264-16.2816 7.168-38.6048-9.1136-49.8688-16.2816-11.264-38.6048-7.168-49.8688 9.1136l-32.7168 47.3088c-0.9728-10.0352-1.4848-20.1728-1.4848-30.3104 0-174.336 141.824-316.16 316.16-316.16s316.16 141.824 316.16 316.16-141.824 316.16-316.16 316.16c-85.2992 0-165.3248-33.4848-225.1776-94.2592-13.8752-14.08-36.608-14.2848-50.688-0.3584-14.08 13.8752-14.2848 36.608-0.3584 50.688 73.472 74.5472 171.5712 115.6096 276.2752 115.6096 213.8624 0 387.84-173.9776 387.84-387.84s-173.9776-387.8912-387.84-387.8912z" fill="#34332E" /><path d="M543.1808 285.6448c-19.8144 0-35.84 16.0256-35.84 35.84v192.1536c0 11.6736 5.6832 22.6304 15.2576 29.3376l136.0896 95.4368c6.2464 4.4032 13.4656 6.5024 20.5312 6.5024 11.264 0 22.4256-5.3248 29.3888-15.2576a35.85536 35.85536 0 0 0-8.7552-49.92L579.072 495.0016V321.4848a35.8912 35.8912 0 0 0-35.8912-35.84z" fill="#34332E" /></svg>