<?xml version="1.0" standalone="no"?>
<!DOCTYPE svg PUBLIC "-//W3C//DTD SVG 20010904//EN"
 "http://www.w3.org/TR/2001/REC-SVG-20010904/DTD/svg10.dtd">
<svg version="1.0" xmlns="http://www.w3.org/2000/svg"
 width="512.000000pt" height="512.000000pt" viewBox="0 0 512.000000 512.000000"
 preserveAspectRatio="xMidYMid meet">

<g transform="translate(0.000000,512.000000) scale(0.100000,-0.100000)"
fill="#000000" stroke="none">
<path d="M2254 5022 c-59 -21 -99 -50 -129 -95 -91 -135 -41 -306 140 -483 88
-85 260 -204 295 -204 35 0 207 119 295 204 196 192 239 390 111 518 -51 52
-110 73 -201 73 -70 0 -89 -4 -143 -31 l-62 -31 -60 30 c-77 38 -172 46 -246
19z"/>
<path d="M3048 3981 c-179 -61 -214 -80 -239 -128 -24 -49 -94 -499 -81 -527
6 -14 60 -51 141 -97 l131 -74 0 -130 0 -131 -80 -199 -80 -199 0 -528 0 -528
80 0 80 0 0 512 0 512 80 197 80 198 0 181 c0 101 -4 190 -10 200 -5 10 -66
51 -135 90 -69 39 -125 73 -125 75 0 8 50 320 56 347 5 25 17 31 157 77 l152
51 344 0 343 0 147 -46 c80 -25 150 -49 154 -54 6 -5 66 -336 67 -372 0 -3
-56 -39 -125 -78 -69 -39 -130 -80 -135 -90 -6 -10 -10 -100 -10 -201 l0 -183
62 -104 c58 -99 63 -113 100 -275 21 -94 39 -172 41 -173 1 -1 36 6 77 16 51
12 74 22 73 31 -1 8 -18 91 -39 184 -35 162 -39 175 -95 268 l-59 98 0 127 0
127 131 74 c80 46 135 83 141 97 8 17 2 80 -27 256 -20 128 -43 247 -50 264
-21 51 -71 78 -250 138 l-170 56 -380 -1 -380 0 -167 -58z"/>
<path d="M1065 3615 l-25 -24 0 -363 0 -363 -77 -115 -77 -115 -32 -145 c-18
-79 -31 -147 -28 -150 6 -6 147 -40 151 -37 1 2 15 62 32 136 29 131 30 133
110 255 l81 122 0 297 0 297 67 -45 68 -45 306 0 306 0 62 40 c34 22 64 40 68
40 3 0 3 -125 1 -277 l-4 -278 -77 -152 c-42 -84 -77 -162 -77 -173 0 -11 36
-92 80 -180 l80 -160 0 -390 0 -390 80 0 80 0 0 410 0 410 -75 150 -75 150 64
128 c48 96 66 145 75 199 6 42 11 210 11 408 l0 336 -25 24 c-40 41 -68 33
-200 -55 l-120 -80 -255 0 -255 0 -120 80 c-132 88 -160 96 -200 55z"/>
<path d="M3305 3495 c-16 -15 -25 -36 -25 -55 0 -19 9 -40 25 -55 15 -16 36
-25 55 -25 19 0 40 9 55 25 16 15 25 36 25 55 0 19 -9 40 -25 55 -15 16 -36
25 -55 25 -19 0 -40 -9 -55 -25z"/>
<path d="M3785 3495 c-16 -15 -25 -36 -25 -55 0 -19 9 -40 25 -55 15 -16 36
-25 55 -25 19 0 40 9 55 25 16 15 25 36 25 55 0 19 -9 40 -25 55 -15 16 -36
25 -55 25 -19 0 -40 -9 -55 -25z"/>
<path d="M3531 3174 c-21 -18 -31 -35 -31 -54 0 -40 50 -80 100 -80 50 0 100
40 100 80 0 40 -50 80 -100 80 -27 0 -48 -8 -69 -26z"/>
<path d="M1385 3095 c-50 -49 -15 -135 55 -135 41 0 80 39 80 80 0 41 -39 80
-80 80 -19 0 -40 -9 -55 -25z"/>
<path d="M1785 3095 c-50 -49 -15 -135 55 -135 41 0 80 39 80 80 0 41 -39 80
-80 80 -19 0 -40 -9 -55 -25z"/>
<path d="M3615 2226 c-71 -32 -95 -83 -95 -205 0 -75 -5 -103 -40 -206 l-40
-119 0 -783 0 -784 25 -24 24 -25 751 0 751 0 24 25 25 24 0 784 0 783 -36
105 c-31 88 -38 122 -43 221 -7 126 -15 148 -75 192 -27 21 -39 21 -634 23
-491 2 -613 0 -637 -11z m1185 -186 l0 -40 -560 0 -560 0 0 40 0 40 560 0 560
0 0 -40z m36 -242 l13 -38 -609 0 c-483 0 -608 3 -605 13 2 6 9 24 14 40 l11
27 581 -2 582 -3 13 -37z m44 -878 l0 -680 -640 0 -640 0 0 680 0 680 640 0
640 0 0 -680z"/>
<path d="M4355 1404 c-72 -37 -115 -101 -115 -171 0 -36 -9 -47 -142 -180
-125 -123 -147 -141 -176 -141 -55 -1 -99 -21 -137 -63 -44 -49 -55 -76 -55
-136 0 -62 33 -128 82 -163 22 -16 52 -46 68 -68 56 -78 164 -103 250 -59 64
33 102 84 107 149 5 53 5 53 146 196 125 125 146 142 175 142 179 0 261 242
120 353 -41 33 -52 44 -85 86 -51 64 -168 91 -238 55z m120 -180 c14 -43 33
-63 68 -72 39 -10 56 -35 41 -59 -9 -14 -23 -17 -64 -15 l-53 4 -200 -200
-200 -200 7 -50 c5 -37 3 -52 -8 -61 -24 -20 -50 -8 -61 26 -14 43 -40 70 -76
77 -33 6 -47 31 -32 55 7 12 26 16 67 16 l56 0 197 197 196 197 -7 47 c-7 53
5 77 38 72 13 -2 25 -14 31 -34z"/>
<path d="M255 2146 c-71 -32 -95 -83 -95 -205 0 -75 -5 -103 -40 -206 l-40
-119 0 -743 0 -744 25 -24 24 -25 751 0 751 0 24 25 25 24 0 744 0 743 -40
119 c-36 106 -40 129 -40 216 0 108 -15 143 -79 186 l-34 23 -601 0 c-479 -1
-607 -4 -631 -14z m1185 -186 l0 -40 -560 0 -560 0 0 40 0 40 560 0 560 0 0
-40z m36 -242 l13 -38 -609 0 c-483 0 -608 3 -605 13 2 6 9 24 14 40 l11 27
581 -2 582 -3 13 -37z m44 -838 l0 -640 -640 0 -640 0 0 640 0 640 640 0 640
0 0 -640z"/>
<path d="M345 1095 l-25 -24 0 -231 0 -231 25 -24 c37 -38 70 -32 167 29 48
30 107 66 132 81 l44 26 46 -35 c74 -56 146 -79 268 -84 77 -3 128 0 180 12
343 77 343 375 0 452 -52 12 -103 15 -180 12 -122 -5 -194 -28 -268 -84 l-46
-35 -44 26 c-25 15 -84 51 -132 81 -97 61 -130 67 -167 29z m874 -212 c31 -15
56 -34 56 -42 0 -36 -132 -81 -235 -81 -102 0 -235 45 -235 80 0 8 15 23 34
34 57 33 128 46 230 42 77 -4 103 -9 150 -33z m-695 -14 c20 -12 36 -25 36
-29 0 -7 -65 -50 -76 -50 -2 0 -4 23 -4 50 0 28 2 50 4 50 3 0 21 -9 40 -21z"/>
<path d="M2277 1189 c-9 -6 -35 -46 -57 -89 -40 -79 -40 -79 -122 -122 l-83
-43 -36 -105 c-34 -100 -37 -105 -69 -111 -18 -4 -39 -14 -47 -22 -14 -14
-103 -421 -103 -469 0 -11 11 -30 25 -43 l24 -25 751 0 751 0 24 25 c14 13 25
32 25 43 0 48 -89 455 -103 469 -8 8 -30 18 -48 22 -31 6 -34 11 -66 107 l-34
101 -98 96 -98 97 -87 0 c-81 0 -91 3 -166 40 l-80 40 -142 0 c-79 0 -151 -5
-161 -11z m343 -189 c71 -36 87 -40 153 -40 l73 0 61 -62 c47 -48 67 -77 82
-120 l20 -58 -449 0 -448 0 16 51 c16 49 19 52 94 90 75 38 79 41 113 109 l35
70 85 0 c80 0 91 -3 165 -40z m514 -457 c2 -10 12 -56 21 -103 9 -47 19 -93
21 -102 5 -17 -29 -18 -614 -18 l-620 0 13 63 c7 34 18 88 25 120 l11 57 569
0 c533 0 569 -1 574 -17z"/>
</g>
</svg>
