<?xml version="1.0" standalone="no"?>
<!DOCTYPE svg PUBLIC "-//W3C//DTD SVG 20010904//EN"
 "http://www.w3.org/TR/2001/REC-SVG-20010904/DTD/svg10.dtd">
<svg version="1.0" xmlns="http://www.w3.org/2000/svg"
 width="512.000000pt" height="512.000000pt" viewBox="0 0 512.000000 512.000000"
 preserveAspectRatio="xMidYMid meet">

<g transform="translate(0.000000,512.000000) scale(0.100000,-0.100000)"
fill="#000000" stroke="none">
<path d="M2183 4949 c-91 -17 -154 -75 -172 -158 -25 -118 34 -246 184 -397
94 -94 259 -224 285 -224 26 0 191 130 285 224 150 151 209 279 184 397 -38
178 -297 221 -429 71 l-40 -45 -40 45 c-61 70 -165 105 -257 87z"/>
<path d="M3323 3508 c-55 -27 -50 -114 8 -138 89 -37 151 99 63 139 -30 13
-42 13 -71 -1z"/>
<path d="M3803 3508 c-55 -27 -50 -114 8 -138 89 -37 151 99 63 139 -30 13
-42 13 -71 -1z"/>
<path d="M3553 3185 c-69 -30 -66 -102 4 -131 70 -30 154 20 139 81 -12 49
-88 75 -143 50z"/>
<path d="M1403 3108 c-55 -27 -50 -114 8 -138 89 -37 151 99 63 139 -30 13
-42 13 -71 -1z"/>
<path d="M1803 3108 c-55 -27 -50 -114 8 -138 89 -37 151 99 63 139 -30 13
-42 13 -71 -1z"/>
<path d="M3629 2131 c-28 -28 -29 -33 -29 -118 0 -77 -5 -105 -40 -208 l-40
-119 0 -763 0 -763 720 0 720 0 0 758 0 758 -36 105 c-30 86 -38 123 -43 216
-6 99 -9 116 -29 135 l-23 23 -585 3 -585 2 -30 -29z m880 -808 c13 -8 31 -32
39 -53 12 -26 26 -41 49 -49 49 -18 73 -55 73 -113 0 -44 -4 -54 -35 -85 -31
-31 -39 -34 -85 -32 l-51 3 -169 -169 -170 -170 0 -52 c0 -71 -35 -113 -101
-120 -60 -7 -102 15 -126 66 -12 27 -30 44 -56 56 -44 19 -67 59 -67 113 0 70
72 129 140 115 30 -6 40 2 201 163 l169 169 0 51 c0 106 100 163 189 107z"/>
<path d="M290 2067 c-38 -19 -50 -54 -50 -147 0 -73 -6 -103 -40 -205 l-40
-119 0 -718 0 -718 720 0 720 0 0 723 0 723 -40 119 c-35 103 -40 131 -40 208
0 85 -1 90 -29 118 l-29 29 -574 0 c-439 0 -579 -3 -598 -13z m285 -1133 c75
-47 138 -84 138 -82 52 107 168 154 357 146 176 -9 290 -70 290 -158 0 -88
-114 -149 -290 -158 -189 -8 -305 39 -357 146 0 2 -63 -35 -138 -82 -75 -47
-145 -91 -156 -96 -18 -10 -19 -5 -19 190 0 195 1 200 19 190 11 -5 81 -49
156 -96z"/>
<path d="M1883 440 l-40 -200 717 0 717 0 -40 200 -40 200 -637 0 -637 0 -40
-200z"/>
</g>
</svg>
