<?xml version="1.0" standalone="no"?><!DOCTYPE svg PUBLIC "-//W3C//DTD SVG 1.1//EN" "http://www.w3.org/Graphics/SVG/1.1/DTD/svg11.dtd"><svg class="icon" width="200px" height="200.00px" viewBox="0 0 1024 1024" version="1.1" xmlns="http://www.w3.org/2000/svg"><path d="M591.872 835.4304h110.08c103.168 0 186.7776-83.6096 186.7776-186.7776V507.1872c0-44.1344-35.7888-79.9232-79.9232-79.9232h-110.08c-103.168 0-186.7776 83.6096-186.7776 186.7776v141.4656c0 44.1344 35.7888 79.9232 79.9232 79.9232z" fill="#FFBE0A" /><path d="M735.2832 874.1888H284.2624c-112.7936 0-204.5952-91.7504-204.5952-204.5952V354.4064c0-112.7936 91.7504-204.5952 204.5952-204.5952h451.0208c112.7936 0 204.5952 91.7504 204.5952 204.5952v315.1872c0 112.7936-91.8016 204.5952-204.5952 204.5952zM284.2624 221.4912c-73.2672 0-132.9152 59.5968-132.9152 132.9152v315.1872c0 73.2672 59.5968 132.9152 132.9152 132.9152h451.0208c73.2672 0 132.9152-59.5968 132.9152-132.9152V354.4064c0-73.2672-59.5968-132.9152-132.9152-132.9152H284.2624z" fill="#34332E" /><path d="M509.2864 525.568a143.36 143.36 0 0 1-63.1808-14.592L214.2208 396.9536a35.8144 35.8144 0 0 1-16.3328-47.9744c8.7552-17.7664 30.208-25.088 47.9744-16.3328l231.8848 113.9712c19.968 9.8304 43.776 9.728 63.6928-0.256l226.4576-113.6128a35.87072 35.87072 0 0 1 48.128 15.9744c8.8576 17.7152 1.7408 39.2192-15.9744 48.128L573.5936 510.464a144.31232 144.31232 0 0 1-64.3072 15.104z" fill="#34332E" /></svg>